# AST/ASF file generated using VICON BodyLanguage
# -----------------------------------------------
:version 1.10
:name VICON
:units
  mass 1.0
  length 0.45
  angle deg
:documentation
   .ast/.asf automatically generated from VICON data using
   VICON BodyBuilder and BodyLanguage model FoxedUp or BRILLIANT.MOD
:root
   order TX TY TZ RX RY RZ
   axis XYZ
   position 0 0 0  
   orientation 0 0 0 
:bonedata
  begin
     id 1 
     name lhipjoint
     direction 0.702568 -0.596508 0.388042 
     length 2.56661 
     axis 0 0 0  XYZ
  end
  begin
     id 2 
     name lfemur
     direction 0.34202 -0.939693 0  
     length 6.58374  
     axis 0 0 20  XYZ
    dof rx ry rz
    limits (-160.0 20.0)
           (-70.0 70.0)
           (-60.0 70.0)
  end
  begin
     id 3 
     name ltibia
     direction 0.34202 -0.939693 0   
     length 6.62538   
     axis 0 0 20   XYZ
    dof rx
    limits (-10.0 170.0)
  end
  begin
     id 4 
     name lfoot
     direction 0.10455 -0.287249 0.952133   
     length 2.26699   
     axis -90 7.62852e-016 20   XYZ
    dof rx rz
    limits (-45.0 90.0)
           (-70.0 20.0)
  end
  begin
     id 5 
     name ltoes
     direction 1.53572e-011 -4.22322e-011 1   
     length 1.12949   
     axis -90 7.62852e-016 20   XYZ
    dof rx
    limits (-90.0 20.0)
  end
  begin
     id 6 
     name rhipjoint
     direction -0.728055 -0.574632 0.373811   
     length 2.66432  
     axis 0 0 0  XYZ 
  end
  begin
     id 7 
     name rfemur
     direction -0.34202 -0.939693 0   
     length 6.66732   
     axis 0 0 -20   XYZ
    dof rx ry rz
    limits (-160.0 20.0)
           (-70.0 70.0)
           (-70.0 60.0)
  end
  begin
     id 8 
     name rtibia
     direction -0.34202 -0.939693 0   
     length 6.59288   
     axis 0 0 -20   XYZ
    dof rx
    limits (-10.0 170.0)
 end
 begin
     id 9 
     name rfoot
     direction -0.119193 -0.327479 0.93731   
     length 2.38061  
     axis -90 -7.62852e-016 -20   XYZ
    dof rx rz
    limits (-45.0 90.0)
           (-20.0 70.0)
  end
  begin
     id 10 
     name rtoes
     direction -1.53547e-011 -4.21827e-011 1   
     length 1.17899   
     axis -90 -7.62852e-016 -20   XYZ
    dof rx
    limits (-90.0 20.0)
  end
  begin
     id 11 
     name lowerback
     direction -0.000416114 0.999912 -0.0132284   
     length 2.12109   
     axis 0 0 0   XYZ
    dof rx ry rz
    limits (-20.0 45.0)
           (-30.0 30.0)
           (-30.0 30.0)
  end
  begin
     id 12 
     name upperback
     direction -0.00136371 0.99809 0.0617608   
     length 2.10067   
     axis 0 0 0   XYZ
    dof rx ry rz
    limits (-20.0 45.0)
           (-30.0 30.0)
           (-30.0 30.0)
  end
  begin
     id 13 
     name thorax
     direction -3.43026e-005 0.997776 0.0666515   
     length 2.10618   
     axis 0 0 0   XYZ
    dof rx ry rz
    limits (-20.0 45.0)
           (-30.0 30.0)
           (-30.0 30.0)
  end
  begin
     id 14 
     name lowerneck
     direction 0.0398646 0.998418 0.0396592   
     length 1.83817   
     axis 0 0 0   XYZ
    dof rx ry rz
    limits (-20.0 45.0)
           (-30.0 30.0)
           (-30.0 30.0)
  end
  begin
     id 15 
     name upperneck
     direction -0.0367268 0.961527 -0.272244   
     length 1.81975   
     axis 0 0 0   XYZ
    dof rx ry rz
    limits (-20.0 45.0)
           (-30.0 30.0)
           (-30.0 30.0)
  end
  begin
     id 16
     name head
     direction -0.0182665 0.99536 -0.0944669  
     length 1.86026  
     axis 0 0 0   XYZ
    dof rx ry rz
    limits (-20.0 45.0)
           (-30.0 30.0)
           (-30.0 30.0)
  end
  begin
     id 17 
     name lclavicle
     direction 0.924239 0.361045 0.124212  
     length 3.26878  
     axis 0 0 0   XYZ
    dof ry rz
    limits (-20.0 10.0)
           (0.0 20.0)
  end
  begin
     id 18 
     name lhumerus
     direction 1 -4.48968e-011 -2.56583e-027   
     length 4.58538   
     axis 180 -30 -90   XYZ
    dof rx ry rz
    limits (-60.0 90.0)
           (-90.0 90.0)
           (-90.0 90.0)
  end
  begin
     id 19
     name lradius
     direction 1 -4.4898e-011 -5.50375e-027   
     length 2.68935   
     axis 180 -30 -90   XYZ
    dof rx
    limits (-10.0 170.0)
  end
  begin
     id 20
     name lwrist
     direction 1 -4.48939e-011 -1.48955e-026   
     length 1.34468   
     axis 9.0955e-015 90 90   XYZ
    dof ry
    limits (-180.0 0.0)
 end
  begin
     id 21 
     name lhand
     direction 1 -4.48936e-011 -2.97907e-026   
     length 0.585058   
     axis 1.90115e-014 90 90   XYZ
    dof rx rz
    limits (-90.0 90.0)
           (-45.0 45.0)
  end
  begin
     id 22 
     name lfingers
     direction 1 -4.49082e-011 -5.96235e-026   
     length 0.471689   
     axis 3.80223e-014 90 90   XYZ
    dof rx
    limits (0.0 90.0)
  end
  begin
     id 23
     name lthumb
     direction 0.707107 -6.3489e-011 0.707107   
     length 0.677253   
     axis -90 45 -3.84942e-014   XYZ
    dof rx rz
    limits (-45.0 45.0)
           (-45.0 45.0)
  end
  begin
     id 24 
     name rclavicle
     direction -0.923098 0.371783 0.0983239   
     length 3.19656  
     axis 0 0 0   XYZ 
    dof ry rz
    limits (-10.0 20.0)
           (-20.0 0.0)
  end
  begin
     id 25 
     name rhumerus
     direction -1 -4.48976e-011 -2.5492e-027  
     length 4.4745   
     axis 180 30 90   XYZ
    dof rx ry rz
    limits (-90.0 60.0)
           (-90.0 90.0)
           (-90.0 90.0)
  end
  begin
     id 26 
     name rradius
     direction -1 -4.48941e-011 -4.36555e-027   
     length 2.93896   
     axis 180 30 90   XYZ
    dof rx
    limits (-10.0 170.0)
  end
  begin
     id 27 
     name rwrist
     direction -1 -4.49044e-011 -1.49032e-026   
     length 1.46948   
     axis 9.0955e-015 -90 -90   XYZ
    dof ry
    limits (-180.0 0.0)
  end
  begin
     id 28
     name rhand
     direction -1 -4.48826e-011 -2.97749e-026   
     length 0.405092   
     axis 1.90115e-014 -90 -90   XYZ
    dof rx rz
    limits (-90.0 90.0)
           (-45.0 45.0)
  end
  begin
     id 29
     name rfingers
     direction -1 -4.49209e-011 -5.96602e-026   
     length 0.326596   
     axis 3.80223e-014 -90 -90   XYZ
    dof rx
    limits (0.0 90.0)
  end
  begin
     id 30
     name rthumb
     direction -0.707107 -6.34776e-011 0.707107   
     length 0.468928   
     axis -90 -45 3.84942e-014   XYZ
    dof rx rz
    limits (-45.0 45.0)
           (-45.0 45.0)
  end
:hierarchy
  begin
    root lhipjoint rhipjoint lowerback
    lhipjoint lfemur
    lfemur ltibia
    ltibia lfoot
    lfoot ltoes
    rhipjoint rfemur
    rfemur rtibia
    rtibia rfoot
    rfoot rtoes
    lowerback upperback
    upperback thorax
    thorax lowerneck lclavicle rclavicle
    lowerneck upperneck
    upperneck head
    lclavicle lhumerus
    lhumerus lradius
    lradius lwrist
    lwrist lhand lthumb
    lhand lfingers
    rclavicle rhumerus
    rhumerus rradius
    rradius rwrist
    rwrist rhand rthumb
    rhand rfingers
  end

#!OML:ASF H:\Punching\Project 1\Capture day 1\Session 1\female.ASF
:FULLY-SPECIFIED
:DEGREES
1
root -0.21539 15.7373 7.08293 8.6731 -5.19607 1.68799
lowerback -5.64446 -0.916671 -0.267448
upperback -7.87979 -1.24636 -0.24243
thorax -5.00498 -0.625512 -0.115565
lowerneck -8.03364 5.66061 11.4925
upperneck 29.9816 8.08956 -7.34767
head 11.9226 4.10687 -3.69751
rclavicle -4.07509e-015 -1.68967e-015
rhumerus -50.3587 -19.9626 -60.7455
rradius 25.0886
rwrist 19.1314
rhand -10.4358 -6.50985
rfingers 7.12502
rthumb 15.5639 -35.9036
lclavicle -4.07509e-015 -1.68967e-015
lhumerus -53.2991 20.7119 62.3006
lradius 28.4048
lwrist -22.0455
lhand -4.21177 14.8654
lfingers 7.12502
lthumb 21.5506 43.6864
rfemur -15.2005 10.1754 13.1229
rtibia 27.6914
rfoot -17.3789 -22.3816
rtoes -1.64715
lfemur -6.62829 -14.5034 -18.2161
ltibia 14.5536
lfoot -14.3059 24.326
ltoes 0.0162956
2
root -0.215211 15.7373 7.08125 8.64695 -5.26137 1.6997
lowerback -5.6633 -0.891768 -0.271365
upperback -7.86053 -1.2134 -0.25807
thorax -4.9741 -0.609368 -0.12972
lowerneck -8.07 5.6609 11.4934
upperneck 30.1435 8.05515 -7.21763
head 11.986 4.10643 -3.65503
rclavicle -3.79182e-014 -9.14409e-015
rhumerus -49.7782 -19.5811 -61.4196
rradius 25.5873
rwrist 18.1381
rhand -10.4723 -5.85147
rfingers 7.12502
rthumb 15.5288 -35.2479
lclavicle -3.79182e-014 -9.14409e-015
lhumerus -53.1865 20.5927 62.5
lradius 28.5285
lwrist -21.9084
lhand -4.12844 14.9186
lfingers 7.12502
lthumb 21.6306 43.7304
rfemur -15.2077 10.1814 13.1058
rtibia 27.7236
rfoot -17.4038 -22.3142
rtoes -1.65372
lfemur -6.55955 -14.5291 -18.243
ltibia 14.4845
lfoot -14.2923 24.4053
ltoes 0.0958052
3
root -0.215544 15.7384 7.07918 8.63428 -5.36398 1.69156
lowerback -5.68119 -0.866838 -0.273559
upperback -7.85451 -1.18019 -0.259936
thorax -4.95758 -0.592799 -0.130379
lowerneck -8.0845 5.67202 11.5305
upperneck 30.2856 8.03712 -7.11079
head 12.0421 4.11528 -3.62531
rclavicle 1.66482e-015 -4.67144e-015
rhumerus -49.1443 -19.1018 -62.2136
rradius 26.1522
rwrist 17.0421
rhand -10.4917 -5.73782
rfingers 7.12502
rthumb 15.5101 -35.1357
lclavicle 1.66482e-015 -4.67144e-015
lhumerus -53.0907 20.4546 62.7173
lradius 28.6768
lwrist -21.7386
lhand -4.10715 14.8801
lfingers 7.12502
lthumb 21.6511 43.6896
rfemur -15.2562 10.2035 13.1057
rtibia 27.7373
rfoot -17.3299 -22.2628
rtoes -1.77099
lfemur -6.51125 -14.6772 -18.2504
ltibia 14.4627
lfoot -14.3498 24.6187
ltoes 0.230164
4
root -0.216139 15.7373 7.07679 8.6291 -5.4255 1.69501
lowerback -5.70438 -0.843554 -0.258463
upperback -7.85739 -1.15039 -0.286867
thorax -4.94845 -0.579627 -0.166699
lowerneck -8.13807 5.66492 11.565
upperneck 30.484 7.9887 -6.99505
head 12.1253 4.11084 -3.59624
rclavicle 4.47514e-014 -3.67752e-015
rhumerus -48.5162 -18.4548 -63.2248
rradius 26.6428
rwrist 15.0889
rhand -11.5363 -5.02901
rfingers 7.12502
rthumb 14.5038 -34.5021
lclavicle 4.47514e-014 -3.67752e-015
lhumerus -52.9897 20.2333 62.9806
lradius 28.9316
lwrist -21.4686
lhand -4.1226 14.8185
lfingers 7.12502
lthumb 21.6362 43.6297
rfemur -15.276 10.1949 13.0939
rtibia 27.7486
rfoot -17.3496 -22.1745
rtoes -1.69945
lfemur -6.49144 -14.646 -18.2601
ltibia 14.4386
lfoot -14.3329 24.6562
ltoes 0.212274
5
root -0.21667 15.7371 7.07454 8.6182 -5.49037 1.6933
lowerback -5.7221 -0.822605 -0.248636
upperback -7.85639 -1.12326 -0.30408
thorax -4.93793 -0.567193 -0.18997
lowerneck -8.15987 5.66284 11.5933
upperneck 30.6414 7.9505 -6.88185
head 12.1866 4.11061 -3.56538
rclavicle -4.19933e-015 -7.45443e-015
rhumerus -47.9229 -17.8983 -64.0739
rradius 27.1953
rwrist 13.5825
rhand -12.0017 -4.57602
rfingers 7.12502
rthumb 14.0553 -34.0808
lclavicle -4.19933e-015 -7.45443e-015
lhumerus -52.885 20.0488 63.2248
lradius 29.1453
lwrist -21.2277
lhand -4.12424 14.7864
lfingers 7.12502
lthumb 21.6347 43.5978
rfemur -15.2964 10.2066 13.0891
rtibia 27.7558
rfoot -17.345 -22.1137
rtoes -1.66593
lfemur -6.46599 -14.6666 -18.2661
ltibia 14.4245
lfoot -14.3459 24.7337
ltoes 0.249239
6
root -0.217384 15.737 7.0722 8.60831 -5.54707 1.68771
lowerback -5.7383 -0.804738 -0.234297
upperback -7.85793 -1.10036 -0.321091
thorax -4.93104 -0.557104 -0.215549
lowerneck -8.17336 5.65863 11.6183
upperneck 30.7899 7.90988 -6.76867
head 12.2423 4.10919 -3.53427
rclavicle 2.95692e-015 1.02374e-014
rhumerus -47.3439 -17.3331 -64.9156
rradius 27.8114
rwrist 12.1689
rhand -12.3081 -4.41802
rfingers 7.12502
rthumb 13.7601 -33.943
lclavicle 2.95692e-015 1.02374e-014
lhumerus -52.7783 19.8579 63.4768
lradius 29.3825
lwrist -20.9561
lhand -4.14173 14.7493
lfingers 7.12502
lthumb 21.6179 43.5626
rfemur -15.3105 10.2186 13.0901
rtibia 27.7515
rfoot -17.3336 -22.0605
rtoes -1.62838
lfemur -6.45736 -14.673 -18.2654
ltibia 14.4372
lfoot -14.3689 24.7907
ltoes 0.272835
